<svg id="visual" viewBox="0 0 900 600" width="900" height="600" xmlns="http://www.w3.org/2000/svg" xmlns:xlink="http://www.w3.org/1999/xlink" version="1.1"><path d="M0 514L21.5 505.7C43 497.3 86 480.7 128.8 477.5C171.7 474.3 214.3 484.7 257.2 488.3C300 492 343 489 385.8 488.2C428.7 487.3 471.3 488.7 514.2 472.3C557 456 600 422 642.8 420.3C685.7 418.7 728.3 449.3 771.2 453.5C814 457.7 857 435.3 878.5 424.2L900 413L900 601L878.5 601C857 601 814 601 771.2 601C728.3 601 685.7 601 642.8 601C600 601 557 601 514.2 601C471.3 601 428.7 601 385.8 601C343 601 300 601 257.2 601C214.3 601 171.7 601 128.8 601C86 601 43 601 21.5 601L0 601Z" fill="#222c3e" stroke-linecap="round" stroke-linejoin="miter"></path></svg>